{
	"asset":{
		"version":"2.0",
		"generator":"Created using the official Cinema 4D glTF Exporter 1.000x284978"
	},
	"scenes":[{
		"nodes":[0]
	}],
	"nodes":[{
		"name":"Text",
		"children":[1]
	},
	{
		"name":"1",
		"children":[2]
	},
	{
		"name":"works",
		"children":[3,
		4,
		5,
		6,
		7]
	},
	{
		"name":"w",
		"mesh":0
	},
	{
		"name":"o",
		"mesh":1,
		"translation":[159.60000610351563,
		0.0,
		0.0],
		"rotation":[0.0,
		0.0,
		0.0,
		-1.0],
		"scale":[1.0,
		1.0,
		1.0]
	},
	{
		"name":"r",
		"mesh":2,
		"translation":[276.20001220703127,
		0.0,
		0.0],
		"rotation":[0.0,
		0.0,
		0.0,
		-1.0],
		"scale":[1.0,
		1.0,
		1.0]
	},
	{
		"name":"k",
		"mesh":3,
		"translation":[352.0,
		0.0,
		0.0],
		"rotation":[0.0,
		0.0,
		0.0,
		-1.0],
		"scale":[1.0,
		1.0,
		1.0]
	},
	{
		"name":"s",
		"mesh":4,
		"translation":[460.3999938964844,
		0.0,
		0.0],
		"rotation":[0.0,
		0.0,
		0.0,
		-1.0],
		"scale":[1.0,
		1.0,
		1.0]
	}],
	"meshes":[{
		"name":"w",
		"primitives":[{
			"attributes":{
				"POSITION":1,
				"NORMAL":2,
				"TEXCOORD_0":3
			},
			"indices":0,
			"material":0
		}]
	},
	{
		"name":"o",
		"primitives":[{
			"attributes":{
				"POSITION":5,
				"NORMAL":6,
				"TEXCOORD_0":7
			},
			"indices":4,
			"material":0
		}]
	},
	{
		"name":"r",
		"primitives":[{
			"attributes":{
				"POSITION":9,
				"NORMAL":10,
				"TEXCOORD_0":11
			},
			"indices":8,
			"material":0
		}]
	},
	{
		"name":"k",
		"primitives":[{
			"attributes":{
				"POSITION":13,
				"NORMAL":14,
				"TEXCOORD_0":15
			},
			"indices":12,
			"material":0
		}]
	},
	{
		"name":"s",
		"primitives":[{
			"attributes":{
				"POSITION":17,
				"NORMAL":18,
				"TEXCOORD_0":19
			},
			"indices":16,
			"material":0
		}]
	}],
	"accessors":[{
		"bufferView":0,
		"componentType":5123,
		"type":"SCALAR",
		"count":768,
		"byteOffset":0,
		"min":[0],
		"max":[337]
	},
	{
		"bufferView":1,
		"componentType":5126,
		"type":"VEC3",
		"count":338,
		"byteOffset":0,
		"min":[2.4000000953674318,
		0.0,
		-21.0],
		"max":[157.1999969482422,
		100.0,
		1.000000238418579]
	},
	{
		"bufferView":1,
		"componentType":5126,
		"type":"VEC3",
		"count":338,
		"byteOffset":12,
		"min":[-0.9718047976493836,
		-1.0,
		-1.0],
		"max":[0.9718047976493836,
		1.0,
		1.0]
	},
	{
		"bufferView":1,
		"componentType":5126,
		"type":"VEC2",
		"count":338,
		"byteOffset":24,
		"min":[0.0,
		0.0],
		"max":[1.0,
		1.0]
	},
	{
		"bufferView":2,
		"componentType":5123,
		"type":"SCALAR",
		"count":8400,
		"byteOffset":0,
		"min":[0],
		"max":[1973]
	},
	{
		"bufferView":3,
		"componentType":5126,
		"type":"VEC3",
		"count":1974,
		"byteOffset":0,
		"min":[4.800000190734863,
		-2.799999952316284,
		-21.0],
		"max":[111.5999984741211,
		102.80000305175781,
		1.0]
	},
	{
		"bufferView":3,
		"componentType":5126,
		"type":"VEC3",
		"count":1974,
		"byteOffset":12,
		"min":[-0.9999891519546509,
		-0.9999985694885254,
		-1.0],
		"max":[0.999997615814209,
		0.9999973773956299,
		1.0]
	},
	{
		"bufferView":3,
		"componentType":5126,
		"type":"VEC2",
		"count":1974,
		"byteOffset":24,
		"min":[0.0,
		0.0],
		"max":[1.0,
		1.0]
	},
	{
		"bufferView":4,
		"componentType":5123,
		"type":"SCALAR",
		"count":2388,
		"byteOffset":0,
		"min":[0],
		"max":[645]
	},
	{
		"bufferView":5,
		"componentType":5126,
		"type":"VEC3",
		"count":646,
		"byteOffset":0,
		"min":[9.600000381469727,
		0.0,
		-21.0],
		"max":[72.80000305175781,
		102.0,
		1.0]
	},
	{
		"bufferView":5,
		"componentType":5126,
		"type":"VEC3",
		"count":646,
		"byteOffset":12,
		"min":[-1.0,
		-1.0,
		-1.0],
		"max":[1.0,
		1.0,
		1.0]
	},
	{
		"bufferView":5,
		"componentType":5126,
		"type":"VEC2",
		"count":646,
		"byteOffset":24,
		"min":[0.0,
		0.0],
		"max":[1.0,
		1.0]
	},
	{
		"bufferView":6,
		"componentType":5123,
		"type":"SCALAR",
		"count":648,
		"byteOffset":0,
		"min":[0],
		"max":[265]
	},
	{
		"bufferView":7,
		"componentType":5126,
		"type":"VEC3",
		"count":266,
		"byteOffset":0,
		"min":[9.600000381469727,
		0.0,
		-21.0],
		"max":[108.4000015258789,
		140.0,
		1.0]
	},
	{
		"bufferView":7,
		"componentType":5126,
		"type":"VEC3",
		"count":266,
		"byteOffset":12,
		"min":[-1.0,
		-1.0,
		-1.0],
		"max":[1.0,
		1.0,
		1.0]
	},
	{
		"bufferView":7,
		"componentType":5126,
		"type":"VEC2",
		"count":266,
		"byteOffset":24,
		"min":[0.0,
		0.0],
		"max":[1.0,
		1.0]
	},
	{
		"bufferView":8,
		"componentType":5123,
		"type":"SCALAR",
		"count":10248,
		"byteOffset":0,
		"min":[0],
		"max":[2443]
	},
	{
		"bufferView":9,
		"componentType":5126,
		"type":"VEC3",
		"count":2444,
		"byteOffset":0,
		"min":[2.971874952316284,
		-2.799999952316284,
		-21.0],
		"max":[91.19999694824219,
		102.80000305175781,
		1.0]
	},
	{
		"bufferView":9,
		"componentType":5126,
		"type":"VEC3",
		"count":2444,
		"byteOffset":12,
		"min":[-0.9999199509620667,
		-0.999977707862854,
		-1.0],
		"max":[0.9999758005142212,
		0.999921977519989,
		1.0]
	},
	{
		"bufferView":9,
		"componentType":5126,
		"type":"VEC2",
		"count":2444,
		"byteOffset":24,
		"min":[0.0,
		0.0],
		"max":[1.0,
		1.0]
	}],
	"bufferViews":[{
		"buffer":0,
		"byteOffset":0,
		"byteLength":1536,
		"target":34963
	},
	{
		"buffer":0,
		"byteOffset":1536,
		"byteLength":10816,
		"target":34962,
		"byteStride":32
	},
	{
		"buffer":1,
		"byteOffset":0,
		"byteLength":16800,
		"target":34963
	},
	{
		"buffer":1,
		"byteOffset":16800,
		"byteLength":63168,
		"target":34962,
		"byteStride":32
	},
	{
		"buffer":2,
		"byteOffset":0,
		"byteLength":4776,
		"target":34963
	},
	{
		"buffer":2,
		"byteOffset":4776,
		"byteLength":20672,
		"target":34962,
		"byteStride":32
	},
	{
		"buffer":3,
		"byteOffset":0,
		"byteLength":1296,
		"target":34963
	},
	{
		"buffer":3,
		"byteOffset":1296,
		"byteLength":8512,
		"target":34962,
		"byteStride":32
	},
	{
		"buffer":4,
		"byteOffset":0,
		"byteLength":20496,
		"target":34963
	},
	{
		"buffer":4,
		"byteOffset":20496,
		"byteLength":78208,
		"target":34962,
		"byteStride":32
	}],
	"buffers":[{
		"uri":"data:application/octet-stream;base64,",
		"byteLength":12352
	},
	{
		"uri":"data:application/octet-stream;base64,",
		"byteLength":79968
	},
	{
		"uri":"data:application/octet-stream;base64,",
		"byteLength":25448
	},
	{
		"uri":"data:application/octet-stream;base64,",
		"byteLength":9808
	},
	{
		"uri":"data:application/octet-stream;base64,",
		"byteLength":98704
	}],
	"materials":[{
		"pbrMetallicRoughness":{
			"baseColorFactor":[0.5199999999999999,
			0.4,
			0.8,
			1.0],
			"metallicFactor":0.0,
			"roughnessFactor":0.5
		},
		"emissiveFactor":[0.0,
		0.0,
		0.0],
		"name":"Mat",
		"alphaMode":"OPAQUE",
		"doubleSided":false
	}]
}